<svg width="1600" height="1400" viewBox="0 0 1600 1400" fill="none" xmlns="http://www.w3.org/2000/svg">
<path d="M1370.79 286.66H712.95C705.77 286.66 699.95 292.48 699.95 299.66V773.61C699.95 780.79 705.77 786.61 712.95 786.61H1370.79C1377.97 786.61 1383.79 780.79 1383.79 773.61V299.66C1383.79 292.48 1377.97 286.66 1370.79 286.66Z" fill="white"/>
<path d="M1371.65 788.95H712.09C708.254 788.945 704.577 787.418 701.864 784.706C699.152 781.993 697.625 778.316 697.62 774.48V298.8C697.625 294.964 699.152 291.286 701.864 288.574C704.577 285.861 708.254 284.335 712.09 284.33H1371.66C1375.5 284.335 1379.17 285.861 1381.89 288.574C1384.6 291.286 1386.12 294.964 1386.13 298.8V774.48C1386.12 778.318 1384.6 781.997 1381.88 784.71C1379.17 787.422 1375.49 788.947 1371.65 788.95V788.95ZM712.09 289C709.492 289.003 707.001 290.036 705.163 291.873C703.326 293.711 702.293 296.202 702.29 298.8V774.48C702.293 777.078 703.326 779.569 705.163 781.407C707.001 783.244 709.492 784.277 712.09 784.28H1371.66C1374.26 784.277 1376.75 783.244 1378.59 781.407C1380.42 779.569 1381.46 777.078 1381.46 774.48V298.8C1381.46 296.202 1380.42 293.711 1378.59 291.873C1376.75 290.036 1374.26 289.003 1371.66 289H712.09Z" fill="#262424"/>
<path d="M1050.54 379.68H770.11C764.587 379.68 760.11 384.157 760.11 389.68V580.16C760.11 585.683 764.587 590.16 770.11 590.16H1050.54C1056.06 590.16 1060.54 585.683 1060.54 580.16V389.68C1060.54 384.157 1056.06 379.68 1050.54 379.68Z" fill="#AEDCFF"/>
<path d="M1042.52 396.2H778.13V573.64H1042.52V396.2Z" fill="white"/>
<path d="M1042.51 549V573.64H778.13V517.64L826.24 469.54C827.974 467.804 830.033 466.427 832.3 465.487C834.567 464.547 836.996 464.063 839.45 464.063C841.904 464.063 844.333 464.547 846.6 465.487C848.867 466.427 850.926 467.804 852.66 469.54L923.25 540.13L965.25 498.13C966.984 496.394 969.043 495.017 971.31 494.077C973.577 493.137 976.006 492.653 978.46 492.653C980.914 492.653 983.343 493.137 985.61 494.077C987.877 495.017 989.936 496.394 991.67 498.13L1042.51 549Z" fill="#1868F1"/>
<path d="M928.16 485.32C939.377 485.32 948.47 476.227 948.47 465.01C948.47 453.793 939.377 444.7 928.16 444.7C916.943 444.7 907.85 453.793 907.85 465.01C907.85 476.227 916.943 485.32 928.16 485.32Z" fill="#1868F1"/>
<path d="M1313.63 379.68H1106.02C1100.5 379.68 1096.02 384.157 1096.02 389.68V580.16C1096.02 585.683 1100.5 590.16 1106.02 590.16H1313.63C1319.15 590.16 1323.63 585.683 1323.63 580.16V389.68C1323.63 384.157 1319.15 379.68 1313.63 379.68Z" fill="#AEDCFF"/>
<path d="M1277.43 425.67H1142.22C1138.08 425.67 1134.72 429.028 1134.72 433.17V436.53C1134.72 440.672 1138.08 444.03 1142.22 444.03H1277.43C1281.57 444.03 1284.93 440.672 1284.93 436.53V433.17C1284.93 429.028 1281.57 425.67 1277.43 425.67Z" fill="white"/>
<path d="M1277.43 475.74H1142.22C1138.08 475.74 1134.72 479.098 1134.72 483.24V486.6C1134.72 490.742 1138.08 494.1 1142.22 494.1H1277.43C1281.57 494.1 1284.93 490.742 1284.93 486.6V483.24C1284.93 479.098 1281.57 475.74 1277.43 475.74Z" fill="white"/>
<path d="M1277.43 525.81H1142.22C1138.08 525.81 1134.72 529.168 1134.72 533.31V536.67C1134.72 540.812 1138.08 544.17 1142.22 544.17H1277.43C1281.57 544.17 1284.93 540.812 1284.93 536.67V533.31C1284.93 529.168 1281.57 525.81 1277.43 525.81Z" fill="white"/>
<path d="M1302.85 659.51H933.2C925.33 659.51 918.95 665.888 918.95 673.755C918.95 681.622 925.33 688 933.2 688H1302.85C1310.72 688 1317.1 681.622 1317.1 673.755C1317.1 665.888 1310.72 659.51 1302.85 659.51Z" fill="#AEDCFF"/>
<path d="M1302.85 706.99H933.2C925.33 706.99 918.95 713.368 918.95 721.235C918.95 729.102 925.33 735.48 933.2 735.48H1302.85C1310.72 735.48 1317.1 729.102 1317.1 721.235C1317.1 713.368 1310.72 706.99 1302.85 706.99Z" fill="#AEDCFF"/>
<path d="M885.51 647.77H799.81C796.016 647.77 792.94 650.846 792.94 654.64V740.34C792.94 744.134 796.016 747.21 799.81 747.21H885.51C889.304 747.21 892.38 744.134 892.38 740.34V654.64C892.38 650.846 889.304 647.77 885.51 647.77Z" fill="#1868F1"/>
<path d="M882.84 739.22C882.534 739.221 882.23 739.161 881.947 739.044C881.664 738.928 881.407 738.756 881.19 738.54L799.26 656.61C798.822 656.172 798.577 655.579 798.577 654.96C798.577 654.341 798.822 653.748 799.26 653.31C799.698 652.872 800.291 652.627 800.91 652.627C801.529 652.627 802.122 652.872 802.56 653.31L884.49 735.24C884.817 735.566 885.04 735.981 885.13 736.434C885.22 736.887 885.174 737.356 884.997 737.782C884.82 738.209 884.521 738.573 884.137 738.829C883.753 739.085 883.302 739.221 882.84 739.22Z" fill="white"/>
<path d="M800.92 739.22C800.454 739.225 799.998 739.09 799.609 738.834C799.221 738.577 798.918 738.209 798.741 737.779C798.563 737.348 798.519 736.874 798.613 736.418C798.707 735.962 798.936 735.545 799.27 735.22L881.2 653.29C881.417 653.073 881.674 652.901 881.957 652.784C882.24 652.667 882.544 652.607 882.85 652.607C883.156 652.607 883.46 652.667 883.743 652.784C884.026 652.901 884.283 653.073 884.5 653.29C884.717 653.507 884.889 653.764 885.006 654.047C885.123 654.33 885.184 654.634 885.184 654.94C885.184 655.246 885.123 655.55 885.006 655.833C884.889 656.116 884.717 656.373 884.5 656.59L802.57 738.52C802.355 738.74 802.098 738.915 801.815 739.035C801.532 739.155 801.228 739.218 800.92 739.22V739.22Z" fill="white"/>
<path d="M1385.24 248.99H698.5C690.95 248.99 684.83 255.11 684.83 262.66V313.22C684.83 320.77 690.95 326.89 698.5 326.89H1385.24C1392.79 326.89 1398.91 320.77 1398.91 313.22V262.66C1398.91 255.11 1392.79 248.99 1385.24 248.99Z" fill="white"/>
<path d="M1386.15 329.22H697.59C693.59 329.215 689.754 327.623 686.926 324.794C684.097 321.966 682.505 318.131 682.5 314.13V261.75C682.505 257.75 684.097 253.914 686.926 251.086C689.754 248.257 693.59 246.665 697.59 246.66H1386.15C1390.15 246.665 1393.99 248.257 1396.81 251.086C1399.64 253.914 1401.23 257.75 1401.24 261.75V314.13C1401.23 318.131 1399.64 321.966 1396.81 324.794C1393.99 327.623 1390.15 329.215 1386.15 329.22ZM697.59 251.32C694.825 251.323 692.173 252.422 690.218 254.378C688.262 256.333 687.163 258.985 687.16 261.75V314.13C687.163 316.895 688.262 319.547 690.218 321.502C692.173 323.458 694.825 324.557 697.59 324.56H1386.15C1388.91 324.555 1391.56 323.454 1393.52 321.499C1395.47 319.544 1396.57 316.894 1396.57 314.13V261.75C1396.57 258.986 1395.47 256.337 1393.52 254.381C1391.56 252.426 1388.91 251.325 1386.15 251.32H697.59V251.32Z" fill="#262424"/>
<path d="M717.22 304.54C726.388 304.54 733.82 297.108 733.82 287.94C733.82 278.772 726.388 271.34 717.22 271.34C708.052 271.34 700.62 278.772 700.62 287.94C700.62 297.108 708.052 304.54 717.22 304.54Z" fill="#1868F1"/>
<path d="M791.42 304.54C800.588 304.54 808.02 297.108 808.02 287.94C808.02 278.772 800.588 271.34 791.42 271.34C782.252 271.34 774.82 278.772 774.82 287.94C774.82 297.108 782.252 304.54 791.42 304.54Z" fill="#1868F1"/>
<path d="M865.61 304.54C874.778 304.54 882.21 297.108 882.21 287.94C882.21 278.772 874.778 271.34 865.61 271.34C856.442 271.34 849.01 278.772 849.01 287.94C849.01 297.108 856.442 304.54 865.61 304.54Z" fill="#AEDCFF"/>
<path d="M1062.27 1143.5H1050.27C1049.61 1143.5 1048.97 1143.24 1048.5 1142.77C1048.03 1142.3 1047.77 1141.66 1047.77 1141C1047.77 1140.34 1048.03 1139.7 1048.5 1139.23C1048.97 1138.76 1049.61 1138.5 1050.27 1138.5H1062.27C1062.93 1138.5 1063.57 1138.76 1064.04 1139.23C1064.51 1139.7 1064.77 1140.34 1064.77 1141C1064.77 1141.66 1064.51 1142.3 1064.04 1142.77C1063.57 1143.24 1062.93 1143.5 1062.27 1143.5ZM1038.27 1143.5H1026.27C1025.61 1143.5 1024.97 1143.24 1024.5 1142.77C1024.03 1142.3 1023.77 1141.66 1023.77 1141C1023.77 1140.34 1024.03 1139.7 1024.5 1139.23C1024.97 1138.76 1025.61 1138.5 1026.27 1138.5H1038.27C1038.93 1138.5 1039.57 1138.76 1040.04 1139.23C1040.51 1139.7 1040.77 1140.34 1040.77 1141C1040.77 1141.66 1040.51 1142.3 1040.04 1142.77C1039.57 1143.24 1038.93 1143.5 1038.27 1143.5ZM1014.27 1143.5H1002.27C1001.61 1143.5 1000.97 1143.24 1000.5 1142.77C1000.03 1142.3 999.77 1141.66 999.77 1141C999.77 1140.34 1000.03 1139.7 1000.5 1139.23C1000.97 1138.76 1001.61 1138.5 1002.27 1138.5H1014.27C1014.93 1138.5 1015.57 1138.76 1016.04 1139.23C1016.51 1139.7 1016.77 1140.34 1016.77 1141C1016.77 1141.66 1016.51 1142.3 1016.04 1142.77C1015.57 1143.24 1014.93 1143.5 1014.27 1143.5V1143.5ZM990.27 1143.5H978.27C977.607 1143.5 976.971 1143.24 976.502 1142.77C976.033 1142.3 975.77 1141.66 975.77 1141C975.77 1140.34 976.033 1139.7 976.502 1139.23C976.971 1138.76 977.607 1138.5 978.27 1138.5H990.27C990.933 1138.5 991.569 1138.76 992.038 1139.23C992.507 1139.7 992.77 1140.34 992.77 1141C992.77 1141.66 992.507 1142.3 992.038 1142.77C991.569 1143.24 990.933 1143.5 990.27 1143.5ZM966.27 1143.5H954.27C953.607 1143.5 952.971 1143.24 952.502 1142.77C952.033 1142.3 951.77 1141.66 951.77 1141C951.77 1140.34 952.033 1139.7 952.502 1139.23C952.971 1138.76 953.607 1138.5 954.27 1138.5H966.27C966.933 1138.5 967.569 1138.76 968.038 1139.23C968.507 1139.7 968.77 1140.34 968.77 1141C968.77 1141.66 968.507 1142.3 968.038 1142.77C967.569 1143.24 966.933 1143.5 966.27 1143.5V1143.5ZM942.27 1143.5H930.27C929.607 1143.5 928.971 1143.24 928.502 1142.77C928.033 1142.3 927.77 1141.66 927.77 1141C927.77 1140.34 928.033 1139.7 928.502 1139.23C928.971 1138.76 929.607 1138.5 930.27 1138.5H942.27C942.933 1138.5 943.569 1138.76 944.038 1139.23C944.507 1139.7 944.77 1140.34 944.77 1141C944.77 1141.66 944.507 1142.3 944.038 1142.77C943.569 1143.24 942.933 1143.5 942.27 1143.5ZM918.27 1143.5H906.27C905.607 1143.5 904.971 1143.24 904.502 1142.77C904.033 1142.3 903.77 1141.66 903.77 1141C903.77 1140.34 904.033 1139.7 904.502 1139.23C904.971 1138.76 905.607 1138.5 906.27 1138.5H918.27C918.933 1138.5 919.569 1138.76 920.038 1139.23C920.507 1139.7 920.77 1140.34 920.77 1141C920.77 1141.66 920.507 1142.3 920.038 1142.77C919.569 1143.24 918.933 1143.5 918.27 1143.5ZM894.27 1143.5H882.27C881.607 1143.5 880.971 1143.24 880.502 1142.77C880.033 1142.3 879.77 1141.66 879.77 1141C879.77 1140.34 880.033 1139.7 880.502 1139.23C880.971 1138.76 881.607 1138.5 882.27 1138.5H894.27C894.933 1138.5 895.569 1138.76 896.038 1139.23C896.507 1139.7 896.77 1140.34 896.77 1141C896.77 1141.66 896.507 1142.3 896.038 1142.77C895.569 1143.24 894.933 1143.5 894.27 1143.5V1143.5ZM870.27 1143.5H858.27C857.607 1143.5 856.971 1143.24 856.502 1142.77C856.033 1142.3 855.77 1141.66 855.77 1141C855.77 1140.34 856.033 1139.7 856.502 1139.23C856.971 1138.76 857.607 1138.5 858.27 1138.5H870.27C870.933 1138.5 871.569 1138.76 872.038 1139.23C872.507 1139.7 872.77 1140.34 872.77 1141C872.77 1141.66 872.507 1142.3 872.038 1142.77C871.569 1143.24 870.933 1143.5 870.27 1143.5ZM846.27 1143.5H834.27C833.607 1143.5 832.971 1143.24 832.502 1142.77C832.033 1142.3 831.77 1141.66 831.77 1141C831.77 1140.34 832.033 1139.7 832.502 1139.23C832.971 1138.76 833.607 1138.5 834.27 1138.5H846.27C846.933 1138.5 847.569 1138.76 848.038 1139.23C848.507 1139.7 848.77 1140.34 848.77 1141C848.77 1141.66 848.507 1142.3 848.038 1142.77C847.569 1143.24 846.933 1143.5 846.27 1143.5V1143.5ZM822.27 1143.5H820.81C820.147 1143.5 819.511 1143.24 819.042 1142.77C818.573 1142.3 818.31 1141.66 818.31 1141V1129C818.31 1128.34 818.573 1127.7 819.042 1127.23C819.511 1126.76 820.147 1126.5 820.81 1126.5C821.473 1126.5 822.109 1126.76 822.578 1127.23C823.047 1127.7 823.31 1128.34 823.31 1129V1138.73C823.827 1138.97 824.247 1139.38 824.501 1139.89C824.754 1140.4 824.826 1140.98 824.705 1141.53C824.584 1142.09 824.276 1142.59 823.834 1142.94C823.391 1143.3 822.839 1143.5 822.27 1143.5ZM1073.94 1143.17C1073.28 1143.17 1072.64 1142.91 1072.17 1142.44C1071.7 1141.97 1071.44 1141.33 1071.44 1140.67V1128.67C1071.44 1128.01 1071.7 1127.37 1072.17 1126.9C1072.64 1126.43 1073.28 1126.17 1073.94 1126.17C1074.6 1126.17 1075.24 1126.43 1075.71 1126.9C1076.18 1127.37 1076.44 1128.01 1076.44 1128.67V1140.67C1076.44 1141.33 1076.18 1141.97 1075.71 1142.44C1075.24 1142.91 1074.6 1143.17 1073.94 1143.17ZM820.81 1119.5C820.147 1119.5 819.511 1119.24 819.042 1118.77C818.573 1118.3 818.31 1117.66 818.31 1117V1105C818.31 1104.34 818.573 1103.7 819.042 1103.23C819.511 1102.76 820.147 1102.5 820.81 1102.5C821.473 1102.5 822.109 1102.76 822.578 1103.23C823.047 1103.7 823.31 1104.34 823.31 1105V1117C823.31 1117.66 823.047 1118.3 822.578 1118.77C822.109 1119.24 821.473 1119.5 820.81 1119.5V1119.5ZM1073.94 1119.17C1073.28 1119.17 1072.64 1118.91 1072.17 1118.44C1071.7 1117.97 1071.44 1117.33 1071.44 1116.67V1104.67C1071.44 1104.01 1071.7 1103.37 1072.17 1102.9C1072.64 1102.43 1073.28 1102.17 1073.94 1102.17C1074.6 1102.17 1075.24 1102.43 1075.71 1102.9C1076.18 1103.37 1076.44 1104.01 1076.44 1104.67V1116.67C1076.44 1117.33 1076.18 1117.97 1075.71 1118.44C1075.24 1118.91 1074.6 1119.17 1073.94 1119.17ZM820.81 1095.5C820.147 1095.5 819.511 1095.24 819.042 1094.77C818.573 1094.3 818.31 1093.66 818.31 1093V1081C818.31 1080.34 818.573 1079.7 819.042 1079.23C819.511 1078.76 820.147 1078.5 820.81 1078.5C821.473 1078.5 822.109 1078.76 822.578 1079.23C823.047 1079.7 823.31 1080.34 823.31 1081V1093C823.31 1093.66 823.047 1094.3 822.578 1094.77C822.109 1095.24 821.473 1095.5 820.81 1095.5V1095.5ZM1073.94 1095.17C1073.28 1095.17 1072.64 1094.91 1072.17 1094.44C1071.7 1093.97 1071.44 1093.33 1071.44 1092.67V1080.67C1071.44 1080.01 1071.7 1079.37 1072.17 1078.9C1072.64 1078.43 1073.28 1078.17 1073.94 1078.17C1074.6 1078.17 1075.24 1078.43 1075.71 1078.9C1076.18 1079.37 1076.44 1080.01 1076.44 1080.67V1092.67C1076.44 1093.33 1076.18 1093.97 1075.71 1094.44C1075.24 1094.91 1074.6 1095.17 1073.94 1095.17ZM820.81 1071.5C820.147 1071.5 819.511 1071.24 819.042 1070.77C818.573 1070.3 818.31 1069.66 818.31 1069V1057C818.31 1056.34 818.573 1055.7 819.042 1055.23C819.511 1054.76 820.147 1054.5 820.81 1054.5C821.473 1054.5 822.109 1054.76 822.578 1055.23C823.047 1055.7 823.31 1056.34 823.31 1057V1069C823.31 1069.66 823.047 1070.3 822.578 1070.77C822.109 1071.24 821.473 1071.5 820.81 1071.5V1071.5ZM1073.94 1071.17C1073.28 1071.17 1072.64 1070.91 1072.17 1070.44C1071.7 1069.97 1071.44 1069.33 1071.44 1068.67V1056.67C1071.44 1056.01 1071.7 1055.37 1072.17 1054.9C1072.64 1054.43 1073.28 1054.17 1073.94 1054.17C1074.6 1054.17 1075.24 1054.43 1075.71 1054.9C1076.18 1055.37 1076.44 1056.01 1076.44 1056.67V1068.67C1076.44 1069.33 1076.18 1069.97 1075.71 1070.44C1075.24 1070.91 1074.6 1071.17 1073.94 1071.17ZM820.81 1047.5C820.147 1047.5 819.511 1047.24 819.042 1046.77C818.573 1046.3 818.31 1045.66 818.31 1045V1033C818.31 1032.34 818.573 1031.7 819.042 1031.23C819.511 1030.76 820.147 1030.5 820.81 1030.5C821.473 1030.5 822.109 1030.76 822.578 1031.23C823.047 1031.7 823.31 1032.34 823.31 1033V1045C823.31 1045.66 823.047 1046.3 822.578 1046.77C822.109 1047.24 821.473 1047.5 820.81 1047.5V1047.5ZM1073.94 1047.17C1073.28 1047.17 1072.64 1046.91 1072.17 1046.44C1071.7 1045.97 1071.44 1045.33 1071.44 1044.67V1032.67C1071.44 1032.01 1071.7 1031.37 1072.17 1030.9C1072.64 1030.43 1073.28 1030.17 1073.94 1030.17C1074.6 1030.17 1075.24 1030.43 1075.71 1030.9C1076.18 1031.37 1076.44 1032.01 1076.44 1032.67V1044.67C1076.44 1045.33 1076.18 1045.97 1075.71 1046.44C1075.24 1046.91 1074.6 1047.17 1073.94 1047.17ZM820.81 1023.5C820.147 1023.5 819.511 1023.24 819.042 1022.77C818.573 1022.3 818.31 1021.66 818.31 1021V1009C818.31 1008.34 818.573 1007.7 819.042 1007.23C819.511 1006.76 820.147 1006.5 820.81 1006.5C821.473 1006.5 822.109 1006.76 822.578 1007.23C823.047 1007.7 823.31 1008.34 823.31 1009V1021C823.31 1021.66 823.047 1022.3 822.578 1022.77C822.109 1023.24 821.473 1023.5 820.81 1023.5V1023.5ZM1073.94 1023.17C1073.28 1023.17 1072.64 1022.91 1072.17 1022.44C1071.7 1021.97 1071.44 1021.33 1071.44 1020.67V1008.67C1071.44 1008.01 1071.7 1007.37 1072.17 1006.9C1072.64 1006.43 1073.28 1006.17 1073.94 1006.17C1074.6 1006.17 1075.24 1006.43 1075.71 1006.9C1076.18 1007.37 1076.44 1008.01 1076.44 1008.67V1020.67C1076.44 1021.33 1076.18 1021.97 1075.71 1022.44C1075.24 1022.91 1074.6 1023.17 1073.94 1023.17V1023.17ZM820.81 999.5C820.147 999.5 819.511 999.237 819.042 998.768C818.573 998.299 818.31 997.663 818.31 997V985C818.31 984.337 818.573 983.701 819.042 983.232C819.511 982.763 820.147 982.5 820.81 982.5C821.473 982.5 822.109 982.763 822.578 983.232C823.047 983.701 823.31 984.337 823.31 985V997C823.31 997.663 823.047 998.299 822.578 998.768C822.109 999.237 821.473 999.5 820.81 999.5V999.5ZM1073.94 999.17C1073.28 999.17 1072.64 998.907 1072.17 998.438C1071.7 997.969 1071.44 997.333 1071.44 996.67V984.67C1071.44 984.007 1071.7 983.371 1072.17 982.902C1072.64 982.433 1073.28 982.17 1073.94 982.17C1074.6 982.17 1075.24 982.433 1075.71 982.902C1076.18 983.371 1076.44 984.007 1076.44 984.67V996.67C1076.44 997.333 1076.18 997.969 1075.71 998.438C1075.24 998.907 1074.6 999.17 1073.94 999.17V999.17ZM820.81 975.5C820.147 975.5 819.511 975.237 819.042 974.768C818.573 974.299 818.31 973.663 818.31 973V961C818.31 960.337 818.573 959.701 819.042 959.232C819.511 958.763 820.147 958.5 820.81 958.5C821.473 958.5 822.109 958.763 822.578 959.232C823.047 959.701 823.31 960.337 823.31 961V973C823.31 973.663 823.047 974.299 822.578 974.768C822.109 975.237 821.473 975.5 820.81 975.5V975.5ZM1073.94 975.17C1073.28 975.17 1072.64 974.907 1072.17 974.438C1071.7 973.969 1071.44 973.333 1071.44 972.67V960.67C1071.44 960.007 1071.7 959.371 1072.17 958.902C1072.64 958.433 1073.28 958.17 1073.94 958.17C1074.6 958.17 1075.24 958.433 1075.71 958.902C1076.18 959.371 1076.44 960.007 1076.44 960.67V972.67C1076.44 973.333 1076.18 973.969 1075.71 974.438C1075.24 974.907 1074.6 975.17 1073.94 975.17ZM820.81 951.5C820.147 951.5 819.511 951.237 819.042 950.768C818.573 950.299 818.31 949.663 818.31 949V937C818.31 936.337 818.573 935.701 819.042 935.232C819.511 934.763 820.147 934.5 820.81 934.5C821.473 934.5 822.109 934.763 822.578 935.232C823.047 935.701 823.31 936.337 823.31 937V949C823.31 949.663 823.047 950.299 822.578 950.768C822.109 951.237 821.473 951.5 820.81 951.5V951.5ZM1073.94 951.17C1073.28 951.17 1072.64 950.907 1072.17 950.438C1071.7 949.969 1071.44 949.333 1071.44 948.67V936.67C1071.44 936.007 1071.7 935.371 1072.17 934.902C1072.64 934.433 1073.28 934.17 1073.94 934.17C1074.6 934.17 1075.24 934.433 1075.71 934.902C1076.18 935.371 1076.44 936.007 1076.44 936.67V948.67C1076.44 949.333 1076.18 949.969 1075.71 950.438C1075.24 950.907 1074.6 951.17 1073.94 951.17V951.17ZM820.81 927.5C820.147 927.5 819.511 927.237 819.042 926.768C818.573 926.299 818.31 925.663 818.31 925V913C818.31 912.337 818.573 911.701 819.042 911.232C819.511 910.763 820.147 910.5 820.81 910.5C821.473 910.5 822.109 910.763 822.578 911.232C823.047 911.701 823.31 912.337 823.31 913V925C823.31 925.663 823.047 926.299 822.578 926.768C822.109 927.237 821.473 927.5 820.81 927.5V927.5ZM1073.94 927.17C1073.28 927.17 1072.64 926.907 1072.17 926.438C1071.7 925.969 1071.44 925.333 1071.44 924.67V912.67C1071.44 912.007 1071.7 911.371 1072.17 910.902C1072.64 910.433 1073.28 910.17 1073.94 910.17C1074.6 910.17 1075.24 910.433 1075.71 910.902C1076.18 911.371 1076.44 912.007 1076.44 912.67V924.67C1076.44 925.333 1076.18 925.969 1075.71 926.438C1075.24 926.907 1074.6 927.17 1073.94 927.17ZM1073.21 903.9H1061.21C1060.55 903.9 1059.91 903.637 1059.44 903.168C1058.97 902.699 1058.71 902.063 1058.71 901.4C1058.71 900.737 1058.97 900.101 1059.44 899.632C1059.91 899.163 1060.55 898.9 1061.21 898.9H1073.21C1073.87 898.9 1074.51 899.163 1074.98 899.632C1075.45 900.101 1075.71 900.737 1075.71 901.4C1075.71 902.063 1075.45 902.699 1074.98 903.168C1074.51 903.637 1073.87 903.9 1073.21 903.9ZM1049.21 903.9H1037.21C1036.55 903.9 1035.91 903.637 1035.44 903.168C1034.97 902.699 1034.71 902.063 1034.71 901.4C1034.71 900.737 1034.97 900.101 1035.44 899.632C1035.91 899.163 1036.55 898.9 1037.21 898.9H1049.21C1049.87 898.9 1050.51 899.163 1050.98 899.632C1051.45 900.101 1051.71 900.737 1051.71 901.4C1051.71 902.063 1051.45 902.699 1050.98 903.168C1050.51 903.637 1049.87 903.9 1049.21 903.9ZM1025.21 903.9H1013.21C1012.55 903.9 1011.91 903.637 1011.44 903.168C1010.97 902.699 1010.71 902.063 1010.71 901.4C1010.71 900.737 1010.97 900.101 1011.44 899.632C1011.91 899.163 1012.55 898.9 1013.21 898.9H1025.21C1025.87 898.9 1026.51 899.163 1026.98 899.632C1027.45 900.101 1027.71 900.737 1027.71 901.4C1027.71 902.063 1027.45 902.699 1026.98 903.168C1026.51 903.637 1025.87 903.9 1025.21 903.9ZM1001.21 903.9H989.21C988.547 903.9 987.911 903.637 987.442 903.168C986.973 902.699 986.71 902.063 986.71 901.4C986.71 900.737 986.973 900.101 987.442 899.632C987.911 899.163 988.547 898.9 989.21 898.9H1001.21C1001.87 898.9 1002.51 899.163 1002.98 899.632C1003.45 900.101 1003.71 900.737 1003.71 901.4C1003.71 902.063 1003.45 902.699 1002.98 903.168C1002.51 903.637 1001.87 903.9 1001.21 903.9ZM977.21 903.9H965.21C964.547 903.9 963.911 903.637 963.442 903.168C962.973 902.699 962.71 902.063 962.71 901.4C962.71 900.737 962.973 900.101 963.442 899.632C963.911 899.163 964.547 898.9 965.21 898.9H977.21C977.873 898.9 978.509 899.163 978.978 899.632C979.447 900.101 979.71 900.737 979.71 901.4C979.71 902.063 979.447 902.699 978.978 903.168C978.509 903.637 977.873 903.9 977.21 903.9ZM953.21 903.9H941.21C940.547 903.9 939.911 903.637 939.442 903.168C938.973 902.699 938.71 902.063 938.71 901.4C938.71 900.737 938.973 900.101 939.442 899.632C939.911 899.163 940.547 898.9 941.21 898.9H953.21C953.873 898.9 954.509 899.163 954.978 899.632C955.447 900.101 955.71 900.737 955.71 901.4C955.71 902.063 955.447 902.699 954.978 903.168C954.509 903.637 953.873 903.9 953.21 903.9V903.9ZM929.21 903.9H917.21C916.547 903.9 915.911 903.637 915.442 903.168C914.973 902.699 914.71 902.063 914.71 901.4C914.71 900.737 914.973 900.101 915.442 899.632C915.911 899.163 916.547 898.9 917.21 898.9H929.21C929.873 898.9 930.509 899.163 930.978 899.632C931.447 900.101 931.71 900.737 931.71 901.4C931.71 902.063 931.447 902.699 930.978 903.168C930.509 903.637 929.873 903.9 929.21 903.9ZM905.21 903.9H893.21C892.547 903.9 891.911 903.637 891.442 903.168C890.973 902.699 890.71 902.063 890.71 901.4C890.71 900.737 890.973 900.101 891.442 899.632C891.911 899.163 892.547 898.9 893.21 898.9H905.21C905.873 898.9 906.509 899.163 906.978 899.632C907.447 900.101 907.71 900.737 907.71 901.4C907.71 902.063 907.447 902.699 906.978 903.168C906.509 903.637 905.873 903.9 905.21 903.9V903.9ZM881.21 903.9H869.21C868.547 903.9 867.911 903.637 867.442 903.168C866.973 902.699 866.71 902.063 866.71 901.4C866.71 900.737 866.973 900.101 867.442 899.632C867.911 899.163 868.547 898.9 869.21 898.9H881.21C881.873 898.9 882.509 899.163 882.978 899.632C883.447 900.101 883.71 900.737 883.71 901.4C883.71 902.063 883.447 902.699 882.978 903.168C882.509 903.637 881.873 903.9 881.21 903.9ZM857.21 903.9H845.21C844.547 903.9 843.911 903.637 843.442 903.168C842.973 902.699 842.71 902.063 842.71 901.4C842.71 900.737 842.973 900.101 843.442 899.632C843.911 899.163 844.547 898.9 845.21 898.9H857.21C857.873 898.9 858.509 899.163 858.978 899.632C859.447 900.101 859.71 900.737 859.71 901.4C859.71 902.063 859.447 902.699 858.978 903.168C858.509 903.637 857.873 903.9 857.21 903.9ZM833.21 903.9H821.21C820.547 903.9 819.911 903.637 819.442 903.168C818.973 902.699 818.71 902.063 818.71 901.4C818.71 900.737 818.973 900.101 819.442 899.632C819.911 899.163 820.547 898.9 821.21 898.9H833.21C833.873 898.9 834.509 899.163 834.978 899.632C835.447 900.101 835.71 900.737 835.71 901.4C835.71 902.063 835.447 902.699 834.978 903.168C834.509 903.637 833.873 903.9 833.21 903.9V903.9Z" fill="#262424"/>
<path d="M1040.35 925H854.41C848.887 925 844.41 929.477 844.41 935V1107.41C844.41 1112.93 848.887 1117.41 854.41 1117.41H1040.35C1045.87 1117.41 1050.35 1112.93 1050.35 1107.41V935C1050.35 929.477 1045.87 925 1040.35 925Z" fill="#AEDCFF"/>
<path d="M1036.72 938.31H858.04V1104.09H1036.72V938.31Z" fill="white"/>
<path d="M1036.72 1087.44V1104.09H858V1066.24L890.51 1033.73C891.682 1032.56 893.073 1031.63 894.605 1030.99C896.136 1030.36 897.777 1030.03 899.435 1030.03C901.093 1030.03 902.734 1030.36 904.265 1030.99C905.797 1031.63 907.188 1032.56 908.36 1033.73L956.06 1081.43L984.44 1053.05C985.612 1051.88 987.003 1050.95 988.535 1050.31C990.066 1049.68 991.707 1049.35 993.365 1049.35C995.023 1049.35 996.664 1049.68 998.195 1050.31C999.727 1050.95 1001.12 1051.88 1002.29 1053.05L1036.72 1087.44Z" fill="#1868F1"/>
<path d="M959.44 1044.4C967.017 1044.4 973.16 1038.26 973.16 1030.68C973.16 1023.1 967.017 1016.96 959.44 1016.96C951.863 1016.96 945.72 1023.1 945.72 1030.68C945.72 1038.26 951.863 1044.4 959.44 1044.4Z" fill="#1868F1"/>
<path d="M830.32 887.98H811.31C809.145 887.98 807.39 889.735 807.39 891.9V910.91C807.39 913.075 809.145 914.83 811.31 914.83H830.32C832.485 914.83 834.24 913.075 834.24 910.91V891.9C834.24 889.735 832.485 887.98 830.32 887.98Z" fill="#1868F1"/>
<path d="M955.13 887.98H936.12C933.955 887.98 932.2 889.735 932.2 891.9V910.91C932.2 913.075 933.955 914.83 936.12 914.83H955.13C957.295 914.83 959.05 913.075 959.05 910.91V891.9C959.05 889.735 957.295 887.98 955.13 887.98Z" fill="#1868F1"/>
<path d="M1079.95 887.98H1060.94C1058.77 887.98 1057.02 889.735 1057.02 891.9V910.91C1057.02 913.075 1058.77 914.83 1060.94 914.83H1079.95C1082.11 914.83 1083.87 913.075 1083.87 910.91V891.9C1083.87 889.735 1082.11 887.98 1079.95 887.98Z" fill="#1868F1"/>
<path d="M830.32 1127.57H811.31C809.145 1127.57 807.39 1129.33 807.39 1131.49V1150.5C807.39 1152.66 809.145 1154.42 811.31 1154.42H830.32C832.485 1154.42 834.24 1152.66 834.24 1150.5V1131.49C834.24 1129.33 832.485 1127.57 830.32 1127.57Z" fill="#1868F1"/>
<path d="M955.13 1127.57H936.12C933.955 1127.57 932.2 1129.33 932.2 1131.49V1150.5C932.2 1152.66 933.955 1154.42 936.12 1154.42H955.13C957.295 1154.42 959.05 1152.66 959.05 1150.5V1131.49C959.05 1129.33 957.295 1127.57 955.13 1127.57Z" fill="#1868F1"/>
<path d="M1079.95 1127.57H1060.94C1058.77 1127.57 1057.02 1129.33 1057.02 1131.49V1150.5C1057.02 1152.66 1058.77 1154.42 1060.94 1154.42H1079.95C1082.11 1154.42 1083.87 1152.66 1083.87 1150.5V1131.49C1083.87 1129.33 1082.11 1127.57 1079.95 1127.57Z" fill="#1868F1"/>
<path d="M830.32 1007.77H811.31C809.145 1007.77 807.39 1009.53 807.39 1011.69V1030.7C807.39 1032.86 809.145 1034.62 811.31 1034.62H830.32C832.485 1034.62 834.24 1032.86 834.24 1030.7V1011.69C834.24 1009.53 832.485 1007.77 830.32 1007.77Z" fill="#1868F1"/>
<path d="M1079.95 1007.77H1060.94C1058.77 1007.77 1057.02 1009.53 1057.02 1011.69V1030.7C1057.02 1032.86 1058.77 1034.62 1060.94 1034.62H1079.95C1082.11 1034.62 1083.87 1032.86 1083.87 1030.7V1011.69C1083.87 1009.53 1082.11 1007.77 1079.95 1007.77Z" fill="#1868F1"/>
<path d="M551.07 510.28C597.34 510.28 634.85 472.77 634.85 426.5C634.85 380.23 597.34 342.72 551.07 342.72C504.8 342.72 467.29 380.23 467.29 426.5C467.29 472.77 504.8 510.28 551.07 510.28Z" fill="#1868F1"/>
<path d="M540.76 456.08C539.577 456.079 538.413 455.782 537.375 455.215C536.337 454.647 535.457 453.829 534.818 452.834C534.178 451.839 533.798 450.699 533.713 449.519C533.627 448.339 533.84 447.157 534.33 446.08L555 401C555.563 399.768 556.469 398.724 557.609 397.991C558.749 397.259 560.075 396.87 561.43 396.87C562.613 396.871 563.777 397.168 564.815 397.735C565.853 398.303 566.733 399.121 567.372 400.116C568.012 401.111 568.392 402.251 568.477 403.431C568.563 404.611 568.35 405.793 567.86 406.87L547.24 451.87C546.685 453.125 545.777 454.191 544.626 454.939C543.475 455.686 542.132 456.083 540.76 456.08V456.08Z" fill="white"/>
<path d="M515.08 426.51L523.29 434.71C523.912 435.334 524.336 436.128 524.507 436.992C524.679 437.856 524.59 438.752 524.254 439.566C523.917 440.38 523.346 441.076 522.614 441.566C521.882 442.056 521.021 442.319 520.14 442.32V442.32C518.96 442.313 517.831 441.838 517 441L503.9 427.91C503.714 427.724 503.567 427.504 503.466 427.261C503.365 427.018 503.313 426.758 503.313 426.495C503.313 426.232 503.365 425.972 503.466 425.729C503.567 425.486 503.714 425.266 503.9 425.08L517 412C517.835 411.163 518.968 410.692 520.15 410.69V410.69C521.031 410.691 521.892 410.954 522.624 411.444C523.356 411.934 523.927 412.63 524.264 413.444C524.601 414.258 524.689 415.154 524.517 416.018C524.346 416.882 523.922 417.676 523.3 418.3L515.08 426.51Z" fill="white"/>
<path d="M587.07 426.51L578.86 434.71C578.238 435.334 577.814 436.128 577.643 436.992C577.471 437.856 577.559 438.752 577.896 439.566C578.233 440.38 578.804 441.076 579.536 441.566C580.268 442.056 581.129 442.319 582.01 442.32V442.32C583.191 442.321 584.323 441.853 585.16 441.02L598.26 427.93C598.446 427.744 598.593 427.524 598.694 427.281C598.795 427.038 598.847 426.778 598.847 426.515C598.847 426.252 598.795 425.992 598.694 425.749C598.593 425.506 598.446 425.286 598.26 425.1L585.16 412C584.325 411.163 583.192 410.692 582.01 410.69V410.69C581.129 410.691 580.268 410.954 579.536 411.444C578.804 411.934 578.233 412.63 577.896 413.444C577.559 414.258 577.471 415.154 577.643 416.018C577.814 416.882 578.238 417.676 578.86 418.3L587.07 426.51Z" fill="white"/>
<path d="M658.69 547.14C658.69 546.75 664.52 519.7 667.87 504.2C668.518 501.198 670.175 498.509 672.563 496.579C674.952 494.648 677.929 493.594 681 493.59H708.39L721.25 459.78C721.643 458.743 722.343 457.85 723.255 457.219C724.168 456.589 725.251 456.251 726.36 456.25V456.25C727.164 456.251 727.959 456.429 728.687 456.771C729.414 457.114 730.057 457.613 730.57 458.233C731.083 458.853 731.453 459.578 731.653 460.357C731.854 461.136 731.88 461.95 731.73 462.74L723.86 504.15L727.19 507.48C728.931 509.222 730.161 511.409 730.745 513.802C731.328 516.195 731.244 518.702 730.5 521.05L727.85 529.42C725.284 537.528 719.742 544.363 712.34 548.55L689.11 561.7L658.69 547.14Z" fill="white"/>
<path d="M689.11 564.2C688.73 564.219 688.35 564.15 688 564L657.59 549.43C657.166 549.227 656.807 548.908 656.556 548.51C656.305 548.112 656.171 547.651 656.17 547.18C656.17 546.78 656.17 546.47 665.41 503.71C666.181 500.144 668.147 496.949 670.982 494.654C673.817 492.359 677.352 491.101 681 491.09H706.67L718.92 458.89C719.678 457.091 721.066 455.632 722.825 454.786C724.584 453.94 726.591 453.766 728.469 454.297C730.347 454.828 731.966 456.027 733.022 457.669C734.077 459.31 734.496 461.281 734.2 463.21L726.58 503.32L728.97 505.71C731.04 507.772 732.502 510.364 733.196 513.203C733.889 516.041 733.787 519.016 732.9 521.8L730.25 530.17C727.504 538.888 721.544 546.235 713.58 550.72L690.31 563.88C689.943 564.086 689.531 564.196 689.11 564.2V564.2ZM661.53 545.71L689 558.89L711.13 546.38C717.993 542.515 723.127 536.183 725.49 528.67L728.14 520.3C728.739 518.395 728.804 516.362 728.328 514.423C727.852 512.483 726.853 510.711 725.44 509.3L722.11 505.97C721.822 505.682 721.609 505.329 721.489 504.94C721.369 504.552 721.345 504.14 721.42 503.74L729.29 462.33C729.365 461.626 729.188 460.919 728.792 460.333C728.395 459.747 727.804 459.32 727.124 459.127C726.443 458.934 725.716 458.989 725.071 459.28C724.426 459.572 723.905 460.082 723.6 460.72L710.74 494.53C710.559 495.004 710.239 495.412 709.821 495.7C709.403 495.987 708.907 496.141 708.4 496.14H681C678.502 496.149 676.081 497.009 674.136 498.578C672.191 500.146 670.838 502.33 670.3 504.77C665.63 526.43 662.53 540.86 661.52 545.72L661.53 545.71Z" fill="#262424"/>
<path d="M694.39 567.35L651 648.4L641.88 665.46C637.84 673.005 631.844 679.323 624.52 683.75L611.07 691.87L501.52 758C501.52 758 415.87 701.77 490.72 657L582.38 625.29L654.5 541.7C654.5 541.7 677.45 536.21 694.39 567.35Z" fill="#AEDCFF"/>
<path d="M677.46 581.14C677.072 581.14 676.689 581.05 676.342 580.876C675.995 580.702 675.693 580.451 675.46 580.14C664.87 565.96 648.74 562.74 648.58 562.7C647.939 562.565 647.376 562.184 647.013 561.638C646.65 561.093 646.516 560.427 646.639 559.784C646.763 559.14 647.133 558.571 647.672 558.198C648.211 557.825 648.874 557.679 649.52 557.79C661.431 560.599 672.007 567.434 679.46 577.14C679.739 577.511 679.908 577.953 679.95 578.415C679.992 578.878 679.904 579.343 679.696 579.758C679.488 580.173 679.169 580.523 678.774 580.767C678.379 581.011 677.924 581.14 677.46 581.14V581.14Z" fill="#262424"/>
<path d="M680.8 568.58C683.103 568.58 684.97 566.713 684.97 564.41C684.97 562.107 683.103 560.24 680.8 560.24C678.497 560.24 676.63 562.107 676.63 564.41C676.63 566.713 678.497 568.58 680.8 568.58Z" fill="white"/>
<path d="M680.8 571.08C679.481 571.08 678.191 570.689 677.094 569.956C675.997 569.223 675.143 568.181 674.638 566.963C674.133 565.744 674.001 564.403 674.258 563.109C674.516 561.815 675.151 560.626 676.084 559.694C677.016 558.761 678.205 558.126 679.499 557.868C680.793 557.611 682.134 557.743 683.352 558.248C684.571 558.753 685.613 559.607 686.346 560.704C687.079 561.801 687.47 563.091 687.47 564.41C687.47 566.179 686.767 567.876 685.516 569.126C684.266 570.377 682.569 571.08 680.8 571.08ZM680.8 562.75C680.47 562.75 680.147 562.848 679.872 563.031C679.598 563.215 679.384 563.476 679.257 563.781C679.131 564.086 679.098 564.422 679.162 564.746C679.227 565.07 679.386 565.367 679.619 565.601C679.853 565.834 680.15 565.993 680.474 566.058C680.798 566.122 681.134 566.089 681.439 565.963C681.744 565.836 682.005 565.622 682.189 565.348C682.372 565.073 682.47 564.75 682.47 564.42C682.47 563.977 682.294 563.552 681.981 563.239C681.668 562.926 681.243 562.75 680.8 562.75V562.75Z" fill="#262424"/>
<path d="M651 648.4L641.88 665.46C637.84 673.005 631.844 679.323 624.52 683.75L611.07 691.87C609.515 690.508 608.152 688.94 607.02 687.21C599.02 675.11 603.7 657.96 617.43 648.9C628.49 641.62 642 641.78 651 648.4Z" fill="white"/>
<path d="M274.78 999.27L242.63 1113.49H527.82L500.47 995.85L274.78 999.27Z" fill="#1868F1"/>
<path d="M176.64 1071.15C173.917 1083.2 176.088 1095.83 182.678 1106.28C189.268 1116.72 199.735 1124.12 211.78 1126.85L385.23 1166.15H543.9L635.9 1117.91C641.185 1115.14 645.852 1111.32 649.618 1106.7C653.384 1102.07 656.17 1096.72 657.807 1090.98C659.445 1085.25 659.899 1079.23 659.143 1073.32C658.388 1067.4 656.437 1061.69 653.41 1056.55V1056.55C649.517 1049.93 643.962 1044.45 637.297 1040.64C630.631 1036.83 623.086 1034.83 615.41 1034.84H222.08C211.51 1034.84 201.254 1038.43 192.996 1045.03C184.738 1051.63 178.97 1060.84 176.64 1071.15V1071.15Z" fill="#1868F1"/>
<path d="M425.41 1065.89C424.915 1065.89 424.431 1065.74 424.019 1065.47C423.607 1065.2 423.286 1064.8 423.096 1064.35C422.906 1063.89 422.857 1063.39 422.954 1062.9C423.051 1062.42 423.289 1061.97 423.64 1061.62L425.96 1059.3C427.979 1057.29 429.58 1054.9 430.67 1052.27C431.76 1049.64 432.317 1046.82 432.31 1043.97V1002.35C432.31 1001.69 432.573 1001.05 433.042 1000.58C433.511 1000.11 434.147 999.85 434.81 999.85C435.473 999.85 436.109 1000.11 436.578 1000.58C437.047 1001.05 437.31 1001.69 437.31 1002.35V1044C437.319 1047.51 436.633 1050.98 435.29 1054.22C433.948 1057.46 431.977 1060.4 429.49 1062.87L427.17 1065.19C426.698 1065.65 426.066 1065.9 425.41 1065.89Z" fill="#262424"/>
<path d="M423.87 1102.65C423.207 1102.65 422.571 1102.39 422.102 1101.92C421.633 1101.45 421.37 1100.81 421.37 1100.15V996.88C421.37 996.217 421.633 995.581 422.102 995.112C422.571 994.643 423.207 994.38 423.87 994.38C424.533 994.38 425.169 994.643 425.638 995.112C426.107 995.581 426.37 996.217 426.37 996.88V1100.15C426.37 1100.81 426.107 1101.45 425.638 1101.92C425.169 1102.39 424.533 1102.65 423.87 1102.65Z" fill="#262424"/>
<path d="M216.75 1142.77C216.728 1161.79 223.107 1180.26 234.86 1195.21H317.28L331.8 1189.16L378.8 1169.57L358 1132.64L263.18 1111.64C258.904 1110.69 254.555 1110.1 250.18 1109.87C240.608 1109.37 231.023 1110.6 221.89 1113.51C221.89 1113.51 216.75 1125.48 216.75 1142.77Z" fill="#1868F1"/>
<path d="M360.52 1154.52C360.52 1154.52 310.94 1151.61 285.97 1148.52C284.741 1140.48 281.952 1132.75 277.76 1125.78C319.82 1133.99 358.29 1138.26 358.29 1138.26L360.52 1154.52Z" fill="white"/>
<path d="M360.52 1157H360.37C359.87 1157 310.42 1154.05 285.66 1151C285.125 1150.93 284.625 1150.7 284.236 1150.32C283.847 1149.95 283.589 1149.46 283.5 1148.93C282.333 1141.2 279.659 1133.78 275.63 1127.09C275.376 1126.68 275.249 1126.2 275.263 1125.71C275.276 1125.23 275.431 1124.76 275.708 1124.36C275.985 1123.96 276.371 1123.65 276.821 1123.47C277.271 1123.28 277.764 1123.24 278.24 1123.33C319.71 1131.42 358.18 1135.74 358.57 1135.78C359.124 1135.84 359.641 1136.09 360.04 1136.48C360.438 1136.87 360.695 1137.38 360.77 1137.93L362.99 1154.17C363.037 1154.52 363.008 1154.88 362.906 1155.22C362.803 1155.56 362.629 1155.88 362.395 1156.14C362.162 1156.41 361.873 1156.63 361.55 1156.77C361.227 1156.92 360.875 1157 360.52 1157V1157ZM288.11 1146.25C309.53 1148.77 346.79 1151.15 357.63 1151.82L356.08 1140.52C348.13 1139.58 316.88 1135.73 282.53 1129.24C285.158 1134.64 287.036 1140.37 288.11 1146.28V1146.25Z" fill="#262424"/>
<path d="M338.373 1176.61C344.986 1173.26 348.74 1167.37 346.758 1163.45C344.775 1159.53 337.807 1159.07 331.194 1162.42C324.581 1165.76 320.827 1171.65 322.809 1175.57C324.792 1179.49 331.76 1179.95 338.373 1176.61Z" fill="white"/>
<path d="M216.75 1142.77C216.728 1161.79 223.107 1180.26 234.86 1195.21H317.28L331.8 1189.16L264.28 1185.29C264.28 1185.29 301.76 1139.1 251.2 1110.4C250.85 1110.21 250.51 1110.01 250.2 1109.84C240.628 1109.33 231.043 1110.57 221.91 1113.48C221.91 1113.48 216.75 1125.48 216.75 1142.77Z" fill="white"/>
<path d="M317.27 1197.72H234.85C234.462 1197.72 234.079 1197.63 233.732 1197.46C233.385 1197.28 233.083 1197.03 232.85 1196.72C220.49 1180.65 214.23 1162.49 214.23 1142.72C214.23 1125.12 219.33 1112.96 219.55 1112.45C219.691 1112.12 219.902 1111.82 220.167 1111.58C220.433 1111.34 220.748 1111.16 221.09 1111.05C230.508 1108.04 240.396 1106.76 250.27 1107.29C250.619 1107.31 250.959 1107.4 251.27 1107.56L252.12 1108.02L252.37 1108.16C267.77 1116.9 276.85 1128.16 279.37 1141.54C282.72 1159.27 273.7 1175.77 268.91 1183L331.91 1186.61C332.473 1186.64 333.009 1186.87 333.429 1187.24C333.849 1187.62 334.13 1188.13 334.225 1188.68C334.32 1189.24 334.224 1189.81 333.953 1190.31C333.681 1190.8 333.25 1191.19 332.73 1191.41L318.21 1197.46C317.917 1197.61 317.597 1197.7 317.27 1197.72ZM236.09 1192.72H316.77L320.77 1191.04L264.1 1187.79C263.641 1187.76 263.197 1187.61 262.819 1187.35C262.441 1187.09 262.142 1186.73 261.956 1186.31C261.77 1185.88 261.703 1185.42 261.764 1184.96C261.825 1184.51 262.01 1184.08 262.3 1183.72C262.46 1183.52 278.44 1163.46 274.47 1142.5C272.22 1130.61 263.96 1120.5 249.93 1112.58L249.68 1112.44L249.45 1112.31C240.761 1111.91 232.067 1112.99 223.74 1115.51C220.713 1124.28 219.185 1133.49 219.22 1142.77C219.171 1160.83 225.103 1178.39 236.09 1192.72V1192.72Z" fill="#262424"/>
<path d="M362.75 1179.14C362.75 1179.14 627.07 1150.46 652 1133C657.538 1128.95 662.046 1123.65 665.16 1117.53C677.44 1094.47 675.44 1058.66 649 1042.84C640.68 1037.84 629.95 1034.84 616.47 1034.84L354.47 1125.84C354.47 1125.84 336.59 1152.47 362.75 1179.14Z" fill="#1868F1"/>
<path d="M362.75 1181.64C362.418 1181.64 362.09 1181.57 361.785 1181.44C361.479 1181.32 361.202 1181.13 360.97 1180.89C333.7 1153.08 352.28 1124.68 352.47 1124.4C352.766 1123.94 353.205 1123.59 353.72 1123.4L615.18 1032.61C615.493 1032.49 615.827 1032.43 616.163 1032.44C616.499 1032.45 616.829 1032.53 617.134 1032.67C617.439 1032.81 617.712 1033.01 617.937 1033.26C618.163 1033.51 618.336 1033.8 618.446 1034.12C618.556 1034.44 618.601 1034.77 618.579 1035.11C618.556 1035.44 618.466 1035.77 618.315 1036.07C618.163 1036.37 617.952 1036.64 617.696 1036.85C617.439 1037.07 617.141 1037.23 616.82 1037.33L356.19 1127.83C353.71 1132 342.4 1153.93 363.69 1176.48C379.13 1174.78 535.69 1157.39 611.63 1142.05C611.952 1141.98 612.283 1141.98 612.606 1142.05C612.928 1142.11 613.235 1142.23 613.509 1142.41C613.783 1142.6 614.018 1142.83 614.202 1143.1C614.386 1143.37 614.514 1143.68 614.58 1144C614.646 1144.32 614.647 1144.65 614.585 1144.98C614.522 1145.3 614.397 1145.6 614.216 1145.88C614.035 1146.15 613.802 1146.39 613.53 1146.57C613.257 1146.76 612.952 1146.88 612.63 1146.95C532.9 1163.07 364.71 1181.41 363.02 1181.59H362.75V1181.64Z" fill="#262424"/>
<path d="M372.32 1126.82C372.32 1126.82 363.43 1144.6 378.82 1166.14Z" fill="white"/>
<path d="M378.82 1168.65C378.432 1168.65 378.049 1168.56 377.701 1168.39C377.354 1168.21 377.052 1167.96 376.82 1167.65C360.74 1145.14 369.73 1126.53 370.12 1125.75C370.416 1125.16 370.935 1124.7 371.565 1124.49C372.194 1124.28 372.881 1124.33 373.475 1124.62C374.069 1124.92 374.521 1125.44 374.732 1126.07C374.943 1126.7 374.896 1127.39 374.6 1127.98C374.26 1128.66 366.6 1144.79 380.89 1164.74C381.147 1165.12 381.296 1165.55 381.322 1166.01C381.347 1166.46 381.248 1166.92 381.035 1167.32C380.822 1167.72 380.503 1168.06 380.113 1168.29C379.722 1168.53 379.275 1168.65 378.82 1168.65Z" fill="#262424"/>
<path d="M602.13 1083.21C602.131 1090.56 604.114 1097.77 607.87 1104.09C611.627 1110.4 617.017 1115.59 623.473 1119.1C629.929 1122.61 637.213 1124.32 644.557 1124.03C651.9 1123.75 659.032 1121.49 665.2 1117.5C677.48 1094.44 675.48 1058.63 649.04 1042.81C643.228 1041.94 637.297 1042.33 631.652 1043.96C626.006 1045.59 620.779 1048.42 616.326 1052.26C611.873 1056.09 608.3 1060.84 605.85 1066.19C603.4 1071.53 602.131 1077.33 602.13 1083.21Z" fill="white"/>
<path d="M621.85 1142.77C621.872 1161.79 615.493 1180.26 603.74 1195.21H521.32L506.8 1189.16L459.8 1169.57C454.59 1150.29 463.47 1132.75 480.67 1132.64L575.49 1111.64C579.766 1110.69 584.115 1110.1 588.49 1109.87C598.062 1109.37 607.647 1110.6 616.78 1113.51C616.78 1113.51 621.85 1125.48 621.85 1142.77Z" fill="#1868F1"/>
<path d="M603.74 1197.72H521.32C520.977 1197.73 520.637 1197.66 520.32 1197.53L458.77 1171.88C458.417 1171.73 458.104 1171.51 457.852 1171.22C457.601 1170.93 457.419 1170.59 457.32 1170.22C454.19 1158.65 455.84 1147.13 461.72 1139.4C463.894 1136.52 466.704 1134.19 469.932 1132.58C473.159 1130.98 476.715 1130.14 480.32 1130.14L574.89 1109.14C589.001 1106 603.691 1106.67 617.46 1111.07C617.802 1111.18 618.117 1111.36 618.383 1111.6C618.648 1111.84 618.859 1112.14 619 1112.47C619.22 1112.98 624.32 1125.14 624.32 1142.74C624.32 1162.48 618.05 1180.63 605.7 1196.74C605.469 1197.04 605.173 1197.29 604.833 1197.46C604.493 1197.63 604.12 1197.72 603.74 1197.72V1197.72ZM521.82 1192.72H602.5C613.477 1178.39 619.402 1160.83 619.35 1142.78C619.385 1133.5 617.857 1124.29 614.83 1115.52C602.227 1111.71 588.854 1111.2 576 1114.06L481.18 1135.06C481.009 1135.1 480.835 1135.12 480.66 1135.12C477.773 1135.07 474.915 1135.7 472.321 1136.97C469.726 1138.23 467.471 1140.1 465.74 1142.41C460.99 1148.66 459.58 1158.05 461.89 1167.72L521.82 1192.72Z" fill="#262424"/>
<path d="M478.07 1154.52C478.07 1154.52 527.65 1151.61 552.62 1148.52C553.849 1140.48 556.638 1132.75 560.83 1125.78C518.77 1133.99 480.3 1138.26 480.3 1138.26L478.07 1154.52Z" fill="white"/>
<path d="M478.07 1157C477.713 1157 477.359 1156.92 477.034 1156.78C476.709 1156.63 476.419 1156.41 476.184 1156.14C475.949 1155.88 475.774 1155.56 475.672 1155.22C475.569 1154.87 475.541 1154.51 475.59 1154.16L477.81 1137.92C477.885 1137.37 478.142 1136.86 478.54 1136.47C478.939 1136.08 479.456 1135.83 480.01 1135.77C480.39 1135.77 518.87 1131.41 560.34 1123.32C560.816 1123.23 561.309 1123.27 561.759 1123.46C562.209 1123.64 562.595 1123.95 562.872 1124.35C563.149 1124.75 563.303 1125.22 563.317 1125.7C563.331 1126.19 563.204 1126.67 562.95 1127.08C558.921 1133.77 556.247 1141.19 555.08 1148.92C554.991 1149.45 554.733 1149.94 554.344 1150.31C553.955 1150.69 553.455 1150.92 552.92 1150.99C528.16 1154.04 478.71 1156.99 478.21 1156.99H478.06L478.07 1157ZM482.51 1140.52L480.96 1151.82C491.8 1151.15 529.06 1148.82 550.48 1146.25C551.558 1140.36 553.435 1134.64 556.06 1129.25C521.7 1135.75 490.45 1139.6 482.51 1140.54V1140.52Z" fill="#262424"/>
<path d="M515.85 1175.72C517.832 1171.81 514.078 1165.92 507.465 1162.57C500.851 1159.22 493.883 1159.69 491.901 1163.6C489.919 1167.52 493.673 1173.41 500.286 1176.76C506.899 1180.1 513.867 1179.64 515.85 1175.72Z" fill="white"/>
<path d="M621.85 1142.77C621.872 1161.79 615.493 1180.26 603.74 1195.21H521.32L506.8 1189.16L574.32 1185.29C574.32 1185.29 536.84 1139.1 587.4 1110.4C587.75 1110.21 588.09 1110.01 588.4 1109.84C597.972 1109.33 607.557 1110.57 616.69 1113.48C616.69 1113.48 621.85 1125.48 621.85 1142.77Z" fill="white"/>
<path d="M603.74 1197.72H521.32C520.977 1197.73 520.637 1197.66 520.32 1197.53L505.8 1191.48C505.28 1191.26 504.849 1190.87 504.577 1190.38C504.306 1189.88 504.21 1189.31 504.305 1188.75C504.4 1188.2 504.681 1187.69 505.101 1187.31C505.521 1186.94 506.057 1186.71 506.62 1186.68L569.62 1183.07C564.83 1175.84 555.81 1159.35 559.16 1141.61C561.69 1128.19 570.77 1116.97 586.16 1108.24L586.41 1108.1L587.27 1107.63C587.581 1107.47 587.922 1107.38 588.27 1107.36C598.144 1106.83 608.032 1108.11 617.45 1111.12C617.792 1111.23 618.107 1111.41 618.373 1111.65C618.638 1111.89 618.849 1112.19 618.99 1112.52C619.21 1113.03 624.31 1125.19 624.31 1142.79C624.31 1162.53 618.04 1180.68 605.69 1196.79C605.455 1197.08 605.158 1197.32 604.821 1197.48C604.483 1197.64 604.114 1197.72 603.74 1197.72ZM521.82 1192.72H602.5C610.726 1181.85 616.154 1169.12 618.304 1155.66C620.454 1142.2 619.261 1128.41 614.83 1115.52C606.504 1113 597.81 1111.92 589.12 1112.32L588.88 1112.46L588.63 1112.6C574.63 1120.6 566.36 1130.6 564.1 1142.51C560.1 1163.51 576.1 1183.51 576.27 1183.73C576.56 1184.09 576.745 1184.52 576.806 1184.97C576.867 1185.43 576.8 1185.89 576.614 1186.32C576.428 1186.74 576.129 1187.1 575.751 1187.36C575.373 1187.62 574.929 1187.77 574.47 1187.8L517.8 1191L521.82 1192.72Z" fill="#262424"/>
<path d="M443.53 1125.8L483.53 1135.8C483.53 1135.8 490.71 1155.55 474.04 1162.73L426.85 1156.06L443.53 1125.8Z" fill="white"/>
<path d="M474.05 1165.23H473.7L426.51 1158.56C426.109 1158.5 425.728 1158.35 425.4 1158.11C425.072 1157.88 424.805 1157.56 424.625 1157.2C424.444 1156.84 424.353 1156.44 424.361 1156.04C424.369 1155.63 424.475 1155.23 424.67 1154.88L441.34 1124.62C441.608 1124.14 442.027 1123.76 442.533 1123.54C443.039 1123.31 443.604 1123.27 444.14 1123.4L484.14 1133.4C484.536 1133.5 484.902 1133.69 485.205 1133.97C485.509 1134.24 485.74 1134.59 485.88 1134.97C488.64 1142.57 489.93 1158.63 475.03 1165.05C474.719 1165.18 474.385 1165.24 474.05 1165.23V1165.23ZM430.8 1154.09L473.68 1160.15C485.19 1154.71 482.68 1141.94 481.57 1137.88L444.79 1128.69L430.8 1154.09Z" fill="#262424"/>
<path d="M442 1177.77C442 1177.77 211.53 1150.45 186.56 1132.97C181.022 1128.92 176.514 1123.62 173.4 1117.5C161.12 1094.44 163.12 1058.63 189.56 1042.81C197.88 1037.81 208.61 1034.81 222.09 1034.81L453.29 1118.25C453.29 1118.25 468.15 1151.1 442 1177.77Z" fill="#1868F1"/>
<path d="M442 1180.27H441.71C440.22 1180.09 291.9 1162.43 221.18 1146.58C220.86 1146.51 220.556 1146.37 220.288 1146.19C220.019 1146 219.79 1145.76 219.614 1145.48C219.438 1145.2 219.319 1144.89 219.262 1144.57C219.206 1144.25 219.213 1143.92 219.285 1143.59C219.357 1143.27 219.491 1142.97 219.679 1142.7C219.868 1142.43 220.108 1142.21 220.385 1142.03C220.662 1141.85 220.971 1141.73 221.295 1141.68C221.618 1141.62 221.95 1141.63 222.27 1141.7C289.27 1156.7 426.56 1173.41 441.06 1175.15C462.25 1152.62 453.44 1125.6 451.39 1120.25L254.29 1049.12C253.684 1048.88 253.196 1048.42 252.928 1047.82C252.66 1047.23 252.634 1046.56 252.856 1045.94C253.077 1045.33 253.528 1044.83 254.113 1044.55C254.699 1044.26 255.372 1044.22 255.99 1044.42L454.13 1115.93C454.444 1116.04 454.733 1116.22 454.979 1116.45C455.224 1116.67 455.422 1116.95 455.56 1117.25C455.72 1117.59 470.83 1151.96 443.78 1179.53C443.547 1179.77 443.27 1179.95 442.964 1180.08C442.659 1180.21 442.331 1180.27 442 1180.27V1180.27Z" fill="#262424"/>
<path d="M425.92 1167.28C425.456 1167.28 425.001 1167.15 424.606 1166.91C424.211 1166.66 423.892 1166.31 423.684 1165.9C423.476 1165.48 423.388 1165.02 423.43 1164.56C423.472 1164.09 423.641 1163.65 423.92 1163.28C438.47 1142.9 433.15 1120.07 433.1 1119.84C433.023 1119.52 433.009 1119.19 433.059 1118.87C433.11 1118.54 433.224 1118.23 433.395 1117.95C433.565 1117.67 433.79 1117.42 434.055 1117.23C434.32 1117.04 434.621 1116.9 434.94 1116.82C435.259 1116.74 435.59 1116.73 435.915 1116.78C436.239 1116.83 436.551 1116.94 436.831 1117.11C437.112 1117.29 437.356 1117.51 437.549 1117.78C437.743 1118.04 437.883 1118.34 437.96 1118.66C438.21 1119.66 443.86 1143.96 427.96 1166.18C427.734 1166.51 427.43 1166.79 427.075 1166.98C426.72 1167.17 426.324 1167.27 425.92 1167.28V1167.28Z" fill="#262424"/>
<path d="M236.46 1083.21C236.459 1090.56 234.476 1097.77 230.719 1104.09C226.963 1110.4 221.573 1115.59 215.117 1119.1C208.66 1122.61 201.377 1124.32 194.033 1124.03C186.69 1123.75 179.558 1121.49 173.39 1117.5C161.11 1094.44 163.11 1058.63 189.55 1042.81C195.362 1041.94 201.293 1042.33 206.938 1043.96C212.584 1045.59 217.811 1048.42 222.264 1052.26C226.717 1056.09 230.29 1060.84 232.74 1066.19C235.19 1071.53 236.459 1077.33 236.46 1083.21V1083.21Z" fill="white"/>
<path d="M305.55 689.29C305.55 689.29 365.55 646.2 490.72 656.98C490.72 656.98 526.11 687.24 517.91 776.98C509.71 866.72 507.65 1005.75 507.65 1005.75H268.65C268.65 1005.75 267.08 865.23 305.55 689.29Z" fill="#AEDCFF"/>
<path d="M490.89 992.54H278.2C277.537 992.54 276.901 992.277 276.432 991.808C275.963 991.339 275.7 990.703 275.7 990.04C275.7 989.377 275.963 988.741 276.432 988.272C276.901 987.803 277.537 987.54 278.2 987.54H490.9C491.228 987.541 491.553 987.606 491.856 987.732C492.159 987.858 492.435 988.043 492.666 988.276C492.898 988.508 493.082 988.784 493.207 989.088C493.332 989.391 493.396 989.717 493.395 990.045C493.394 990.373 493.329 990.698 493.203 991.001C493.077 991.304 492.892 991.58 492.659 991.811C492.427 992.043 492.151 992.227 491.847 992.352C491.544 992.477 491.218 992.541 490.89 992.54V992.54Z" fill="#262424"/>
<path d="M518.85 741.56C518.207 741.561 517.589 741.314 517.123 740.871C516.658 740.427 516.381 739.822 516.35 739.18C514.28 696.97 501.35 674.18 493.88 664.3C493.482 663.77 493.311 663.103 493.405 662.446C493.499 661.79 493.85 661.198 494.38 660.8C494.91 660.402 495.577 660.231 496.234 660.325C496.89 660.419 497.482 660.77 497.88 661.3C505.73 671.61 519.23 695.41 521.36 738.97C521.393 739.632 521.161 740.279 520.717 740.77C520.273 741.262 519.652 741.556 518.99 741.59H518.87L518.85 741.56Z" fill="#262424"/>
<path d="M370.87 680.78C373.891 687.882 378.434 694.234 384.18 699.387C389.925 704.539 396.732 708.367 404.12 710.6C406.6 697 413.43 679.89 413.43 679.89C421 690.34 425 704.15 426 710.45C450.57 703.7 453.37 680.08 453.37 680.08C450.37 656.41 430.02 638.59 412.55 639.19C373.95 640.5 370.87 680.78 370.87 680.78Z" fill="white"/>
<path d="M404.11 713.1C403.856 713.101 403.603 713.064 403.36 712.99C395.636 710.634 388.52 706.619 382.509 701.227C376.498 695.834 371.737 689.194 368.56 681.77C368.399 681.399 368.33 680.994 368.36 680.59C368.36 680.16 372.08 638.06 412.45 636.69C430.32 636.09 452.52 653.63 455.84 679.77C455.865 679.973 455.865 680.177 455.84 680.38C455.84 680.63 452.54 705.75 426.65 712.87C426.312 712.963 425.959 712.984 425.613 712.932C425.266 712.879 424.935 712.755 424.64 712.566C424.345 712.378 424.093 712.129 423.9 711.837C423.707 711.545 423.577 711.215 423.52 710.87C421.835 701.883 418.615 693.254 414 685.36C411.83 691.31 408.19 702.04 406.54 711.05C406.436 711.62 406.136 712.137 405.693 712.511C405.249 712.885 404.69 713.093 404.11 713.1ZM373.42 680.38C376.156 686.579 380.118 692.161 385.067 696.789C390.017 701.417 395.851 704.996 402.22 707.31C405.03 694.24 410.84 679.63 411.1 678.97C411.266 678.556 411.541 678.194 411.894 677.922C412.248 677.649 412.668 677.477 413.111 677.422C413.554 677.366 414.003 677.431 414.413 677.608C414.823 677.786 415.177 678.069 415.44 678.43C422.5 688.15 426.44 700.25 427.93 707.24C447.07 700.57 450.45 682.69 450.84 680.08C447.84 657.45 428.19 641.17 412.63 641.69C397.56 642.2 386.39 648.93 379.42 661.69C376.304 667.505 374.271 673.838 373.42 680.38Z" fill="#262424"/>
<path d="M663.8 1068.35H470.8C469.495 1068.35 468.207 1068.05 467.035 1067.48C465.863 1066.9 464.838 1066.07 464.038 1065.04C463.239 1064 462.687 1062.8 462.423 1061.52C462.16 1060.25 462.193 1058.92 462.52 1057.66L504.28 896.6C504.756 894.767 505.828 893.144 507.326 891.985C508.825 890.827 510.666 890.199 512.56 890.2H705.56C706.865 890.2 708.153 890.498 709.325 891.073C710.497 891.647 711.522 892.482 712.322 893.514C713.121 894.546 713.673 895.748 713.937 897.026C714.2 898.305 714.167 899.626 713.84 900.89L672.11 1061.95C671.632 1063.79 670.556 1065.42 669.052 1066.57C667.547 1067.73 665.699 1068.36 663.8 1068.35Z" fill="white"/>
<path d="M663.8 1070.85H470.8C469.109 1070.86 467.439 1070.48 465.919 1069.74C464.399 1069 463.07 1067.92 462.035 1066.58C461 1065.25 460.287 1063.69 459.951 1062.03C459.616 1060.38 459.667 1058.66 460.1 1057.03L501.86 896C502.466 893.625 503.848 891.521 505.786 890.02C507.725 888.52 510.109 887.711 512.56 887.72H705.56C707.251 887.71 708.921 888.089 710.441 888.829C711.961 889.569 713.29 890.649 714.325 891.986C715.36 893.322 716.073 894.88 716.409 896.537C716.744 898.194 716.693 899.906 716.26 901.54L674.5 1062.57C673.894 1064.94 672.512 1067.05 670.573 1068.55C668.635 1070.05 666.251 1070.86 663.8 1070.85ZM512.56 892.69C511.219 892.689 509.916 893.134 508.856 893.953C507.795 894.773 507.037 895.922 506.7 897.22L465 1058.28C464.757 1059.18 464.725 1060.11 464.907 1061.02C465.088 1061.93 465.478 1062.79 466.046 1063.52C466.614 1064.26 467.344 1064.85 468.18 1065.25C469.015 1065.66 469.932 1065.86 470.86 1065.85H663.86C665.203 1065.86 666.51 1065.42 667.572 1064.6C668.635 1063.78 669.391 1062.62 669.72 1061.32L711.45 900.26C711.693 899.365 711.725 898.425 711.543 897.515C711.362 896.606 710.972 895.75 710.404 895.017C709.836 894.283 709.106 893.691 708.27 893.288C707.435 892.884 706.518 892.679 705.59 892.69H512.59H512.56Z" fill="#262424"/>
<path d="M678.85 1068.35H485.85C484.545 1068.35 483.257 1068.05 482.085 1067.48C480.913 1066.9 479.888 1066.07 479.088 1065.04C478.289 1064 477.737 1062.8 477.473 1061.52C477.21 1060.25 477.243 1058.92 477.57 1057.66L519.33 896.6C519.806 894.767 520.878 893.144 522.376 891.985C523.875 890.827 525.716 890.199 527.61 890.2H720.61C721.915 890.2 723.203 890.498 724.375 891.073C725.547 891.647 726.572 892.482 727.372 893.514C728.171 894.546 728.723 895.748 728.987 897.026C729.25 898.305 729.217 899.626 728.89 900.89L687.16 1061.95C686.682 1063.79 685.606 1065.42 684.102 1066.57C682.597 1067.73 680.749 1068.36 678.85 1068.35V1068.35Z" fill="white"/>
<path d="M678.85 1070.85H485.85C484.159 1070.86 482.489 1070.48 480.969 1069.74C479.449 1069 478.12 1067.92 477.085 1066.58C476.05 1065.25 475.337 1063.69 475.001 1062.03C474.666 1060.38 474.717 1058.66 475.15 1057.03L516.91 896C517.516 893.625 518.898 891.521 520.837 890.02C522.775 888.52 525.159 887.711 527.61 887.72H720.61C722.301 887.71 723.971 888.089 725.491 888.829C727.011 889.569 728.34 890.649 729.375 891.986C730.41 893.322 731.123 894.88 731.459 896.537C731.794 898.194 731.743 899.906 731.31 901.54L689.58 1062.6C688.967 1064.97 687.578 1067.08 685.634 1068.57C683.69 1070.07 681.302 1070.87 678.85 1070.85ZM527.6 892.69C526.257 892.68 524.95 893.122 523.888 893.943C522.825 894.764 522.069 895.918 521.74 897.22L480 1058.28C479.757 1059.18 479.725 1060.11 479.907 1061.02C480.088 1061.93 480.478 1062.79 481.046 1063.52C481.614 1064.26 482.344 1064.85 483.18 1065.25C484.015 1065.66 484.932 1065.86 485.86 1065.85H678.86C680.203 1065.86 681.51 1065.42 682.572 1064.6C683.635 1063.78 684.391 1062.62 684.72 1061.32L726.45 900.26C726.693 899.365 726.725 898.425 726.543 897.515C726.362 896.606 725.972 895.75 725.404 895.017C724.836 894.283 724.106 893.691 723.27 893.288C722.435 892.884 721.518 892.679 720.59 892.69H527.59H527.6Z" fill="#262424"/>
<path d="M448.27 1085.44H662.65C667.251 1085.44 670.98 1081.71 670.98 1077.11V1076.67C670.98 1072.07 667.251 1068.34 662.65 1068.34H448.27C443.669 1068.34 439.94 1072.07 439.94 1076.67V1077.11C439.94 1081.71 443.669 1085.44 448.27 1085.44Z" fill="white"/>
<path d="M662.65 1087.95H448.28C445.409 1087.94 442.658 1086.8 440.628 1084.77C438.598 1082.74 437.455 1079.99 437.45 1077.12V1076.69C437.455 1073.82 438.598 1071.07 440.628 1069.04C442.658 1067.01 445.409 1065.87 448.28 1065.86H662.65C665.521 1065.87 668.272 1067.01 670.302 1069.04C672.332 1071.07 673.475 1073.82 673.48 1076.69V1077.12C673.475 1079.99 672.332 1082.74 670.302 1084.77C668.272 1086.8 665.521 1087.94 662.65 1087.95V1087.95ZM448.28 1070.85C446.735 1070.85 445.253 1071.47 444.16 1072.56C443.068 1073.65 442.453 1075.13 442.45 1076.68V1077.11C442.453 1078.66 443.068 1080.14 444.16 1081.23C445.253 1082.32 446.735 1082.94 448.28 1082.94H662.65C664.195 1082.94 665.677 1082.32 666.77 1081.23C667.862 1080.14 668.477 1078.66 668.48 1077.11V1076.68C668.477 1075.13 667.862 1073.65 666.77 1072.56C665.677 1071.47 664.195 1070.85 662.65 1070.85H448.28Z" fill="#262424"/>
<path d="M451.44 1068.35H302.94C298.339 1068.35 294.61 1072.08 294.61 1076.68V1077.12C294.61 1081.72 298.339 1085.45 302.94 1085.45H451.44C456.041 1085.45 459.77 1081.72 459.77 1077.12V1076.68C459.77 1072.08 456.041 1068.35 451.44 1068.35Z" fill="white"/>
<path d="M451.44 1087.95H302.94C300.069 1087.94 297.318 1086.8 295.288 1084.77C293.258 1082.74 292.115 1079.99 292.11 1077.12V1076.69C292.115 1073.82 293.258 1071.07 295.288 1069.04C297.318 1067.01 300.069 1065.87 302.94 1065.86H451.44C454.311 1065.87 457.062 1067.01 459.092 1069.04C461.122 1071.07 462.265 1073.82 462.27 1076.69V1077.12C462.265 1079.99 461.122 1082.74 459.092 1084.77C457.062 1086.8 454.311 1087.94 451.44 1087.95V1087.95ZM302.94 1070.85C301.395 1070.85 299.913 1071.47 298.82 1072.56C297.728 1073.65 297.113 1075.13 297.11 1076.68V1077.11C297.113 1078.66 297.728 1080.14 298.82 1081.23C299.913 1082.32 301.395 1082.94 302.94 1082.94H451.44C452.985 1082.94 454.467 1082.32 455.56 1081.23C456.652 1080.14 457.267 1078.66 457.27 1077.11V1076.68C457.267 1075.13 456.652 1073.65 455.56 1072.56C454.467 1071.47 452.985 1070.85 451.44 1070.85H302.94Z" fill="#262424"/>
<path d="M375.57 1022.7L344.57 1044.24C344.57 1044.24 289.27 996.1 259.41 961C249.2 949 241.97 938.49 240.92 932C240.05 926.57 240.81 913.24 242.92 895.44C250.67 829.18 276.73 701.11 305.59 689.39C322 682.62 342 698 340.95 737.51C339.9 777.02 319.4 911.39 319.4 911.39L375.57 1022.7Z" fill="#AEDCFF"/>
<path d="M298.36 1004.18C297.711 1004.18 297.087 1003.93 296.62 1003.48C286.85 994.01 278.12 985.19 270.69 977.27C270.465 977.03 270.29 976.749 270.175 976.441C270.059 976.134 270.005 975.807 270.015 975.479C270.026 975.15 270.101 974.827 270.237 974.528C270.372 974.229 270.565 973.96 270.805 973.735C271.045 973.51 271.326 973.335 271.634 973.22C271.941 973.104 272.268 973.05 272.596 973.06C272.925 973.071 273.247 973.146 273.547 973.282C273.846 973.417 274.115 973.61 274.34 973.85C281.72 981.72 290.34 990.48 300.1 999.85C300.47 1000.19 300.727 1000.64 300.837 1001.14C300.947 1001.63 300.905 1002.14 300.717 1002.61C300.528 1003.08 300.202 1003.48 299.782 1003.76C299.361 1004.04 298.865 1004.19 298.36 1004.18V1004.18Z" fill="#262424"/>
<path d="M337.7 1032.21C337.161 1032.21 336.636 1032.04 336.203 1031.72C335.77 1031.4 335.453 1030.95 335.298 1030.43C335.143 1029.91 335.158 1029.36 335.342 1028.86C335.527 1028.35 335.87 1027.92 336.32 1027.62L362.14 1010.62C362.693 1010.29 363.352 1010.19 363.979 1010.33C364.607 1010.47 365.155 1010.85 365.51 1011.39C365.865 1011.93 365.998 1012.58 365.882 1013.21C365.767 1013.85 365.411 1014.41 364.89 1014.79V1014.79L340.41 1030.94L340.17 1031.08L339.08 1031.8C338.67 1032.07 338.19 1032.21 337.7 1032.21Z" fill="#262424"/>
<path d="M363.81 1001.88C363.348 1001.88 362.895 1001.75 362.501 1001.51C362.108 1001.27 361.789 1000.92 361.58 1000.51L317.18 912.51C316.946 912.047 316.862 911.523 316.94 911.01C317.14 909.67 337.44 776.33 338.46 737.44C339.21 708.61 328.71 694.66 318.64 691.21C318.019 690.99 317.51 690.534 317.224 689.941C316.937 689.348 316.896 688.666 317.109 688.043C317.323 687.42 317.773 686.907 318.363 686.614C318.953 686.321 319.635 686.273 320.26 686.48C332.01 690.48 344.26 706.03 343.46 737.57C342.46 775.19 323.7 899.81 322.01 910.97L366.01 998.25C366.202 998.629 366.294 999.05 366.278 999.475C366.262 999.899 366.138 1000.31 365.918 1000.68C365.698 1001.04 365.389 1001.34 365.02 1001.55C364.651 1001.76 364.235 1001.87 363.81 1001.88V1001.88Z" fill="#262424"/>
<path d="M288.11 922.78C287.504 922.784 286.917 922.567 286.458 922.17C286 921.773 285.701 921.224 285.618 920.623C285.535 920.022 285.673 919.412 286.006 918.906C286.34 918.399 286.846 918.031 287.43 917.87L318.72 909C319.358 908.818 320.042 908.897 320.621 909.22C321.201 909.543 321.628 910.082 321.81 910.72C321.992 911.358 321.913 912.042 321.59 912.621C321.267 913.201 320.728 913.628 320.09 913.81L288.8 922.7C288.575 922.759 288.343 922.785 288.11 922.78Z" fill="#262424"/>
<path d="M259.41 961C249.2 949 241.97 938.49 240.92 932C240.05 926.57 240.81 913.24 242.92 895.44C254.47 895.44 266.28 906.58 270.71 922.7C275.31 939.42 270.29 955.73 259.41 961Z" fill="white"/>
<path d="M346.49 1042.89C346.49 1042.89 351.59 1057.2 364.16 1056.43C364.16 1056.43 380.45 1074.51 388.27 1075.43C396.09 1076.35 412.27 1069.02 412.76 1061.84C412.76 1061.84 421.86 1061.71 420.76 1052.48C419.66 1043.25 404.86 1018.24 396.14 1015.29C387.42 1012.34 367.52 1026.73 346.49 1042.89Z" fill="white"/>
<path d="M389.61 1078C389.065 1078 388.521 1077.97 387.98 1077.91C380.23 1077.02 366.75 1062.91 363.08 1058.98C349.7 1058.98 344.36 1044.39 344.13 1043.75C343.953 1043.25 343.938 1042.71 344.087 1042.21C344.236 1041.7 344.542 1041.25 344.96 1040.93C371.67 1020.41 387.86 1009.87 396.88 1012.93C406.7 1016.25 421.88 1041.93 423.18 1052.18C423.62 1055.67 422.88 1058.55 420.99 1060.72C419.358 1062.5 417.186 1063.69 414.81 1064.11C413.845 1066.49 412.252 1068.56 410.2 1070.11C404.78 1074.6 395.79 1078 389.61 1078ZM364.15 1053.95C364.501 1053.95 364.848 1054.02 365.168 1054.17C365.489 1054.31 365.776 1054.52 366.01 1054.78C372.06 1061.5 383.54 1072.37 388.55 1072.95C393.34 1073.49 402.15 1070.32 407.02 1066.28C409.02 1064.62 410.17 1062.98 410.27 1061.67C410.315 1061.05 410.593 1060.46 411.048 1060.03C411.504 1059.6 412.104 1059.36 412.73 1059.35C412.73 1059.35 415.67 1059.25 417.25 1057.42C417.733 1056.76 418.072 1056.01 418.245 1055.22C418.417 1054.42 418.419 1053.6 418.25 1052.8C417.11 1043.7 402.52 1020.11 395.31 1017.67C387.38 1015 364.31 1032.42 349.58 1043.73C351.22 1047.12 355.75 1054.48 364.03 1053.97H364.18L364.15 1053.95Z" fill="#262424"/>
<path d="M410.45 1060.46C410.041 1060.46 409.639 1060.36 409.278 1060.17C408.917 1059.98 408.609 1059.7 408.38 1059.36L394.15 1038.36C393.801 1037.81 393.68 1037.15 393.812 1036.51C393.945 1035.87 394.32 1035.31 394.859 1034.95C395.398 1034.58 396.058 1034.44 396.699 1034.56C397.339 1034.67 397.91 1035.03 398.29 1035.56L412.52 1056.56C412.774 1056.94 412.921 1057.37 412.945 1057.83C412.969 1058.28 412.87 1058.73 412.657 1059.13C412.444 1059.53 412.126 1059.87 411.738 1060.1C411.349 1060.34 410.904 1060.46 410.45 1060.46V1060.46Z" fill="#262424"/>
<path d="M389.95 591.48L390.58 615.21L391.65 655.81C405.31 665.36 418.59 666.36 431.4 656.74L429.52 637.88L426.68 609.31L389.95 591.48Z" fill="white"/>
<path d="M412.86 666C405.527 666 397.98 663.29 390.22 657.87C389.897 657.645 389.631 657.346 389.445 656.998C389.259 656.651 389.158 656.264 389.15 655.87L387.45 591.54C387.438 591.111 387.537 590.685 387.737 590.305C387.937 589.925 388.231 589.603 388.592 589.37C388.953 589.137 389.368 589 389.796 588.974C390.225 588.948 390.653 589.033 391.04 589.22L427.78 607.06C428.165 607.246 428.496 607.527 428.741 607.878C428.986 608.228 429.137 608.635 429.18 609.06L433.9 656.49C433.942 656.919 433.871 657.352 433.696 657.747C433.521 658.141 433.247 658.483 432.9 658.74C426.47 663.58 419.77 666 412.86 666ZM394.12 654.48C406.57 662.78 417.93 663.14 428.78 655.57L424.33 611L392.55 595.57L394.12 654.48Z" fill="#262424"/>
<path d="M455.07 585C457.22 604.51 456.57 628.53 432.9 629.87C404.76 631.45 383 616 377.24 590.1C371.48 564.2 380.24 547.1 411.95 543.41C414.644 543.091 417.36 542.997 420.07 543.13C438.96 544.13 451.07 557.01 453.7 574.61C454.16 577.79 454.67 581.31 455.07 585Z" fill="white"/>
<path d="M429 632.47C419.411 632.583 409.936 630.391 401.37 626.08C401.078 625.929 400.819 625.722 400.608 625.471C400.396 625.22 400.236 624.93 400.137 624.617C400.038 624.304 400.001 623.974 400.029 623.647C400.057 623.32 400.149 623.002 400.3 622.71C400.451 622.419 400.658 622.16 400.909 621.948C401.16 621.736 401.45 621.576 401.763 621.477C402.076 621.378 402.406 621.341 402.733 621.369C403.06 621.397 403.378 621.489 403.67 621.64C412.652 626.103 422.666 628.078 432.67 627.36C439.08 627 443.83 624.89 447.19 620.91C454.52 612.24 453.73 596.42 452.5 585.26C452.11 581.6 451.61 578.17 451.14 574.97C448.6 557.75 436.61 546.51 419.85 545.62C419.187 545.586 418.565 545.289 418.12 544.796C417.676 544.303 417.445 543.653 417.48 542.99C417.514 542.327 417.811 541.705 418.304 541.26C418.797 540.816 419.447 540.586 420.11 540.62C439.39 541.62 453.17 554.52 456.11 574.23C456.57 577.34 457.11 580.97 457.5 584.71C458.83 596.77 459.61 613.99 451.04 624.13C446.8 629.13 440.73 631.9 432.98 632.34C431.66 632.427 430.333 632.47 429 632.47Z" fill="#262424"/>
<path d="M370.18 596.7C373.615 599.939 377.326 602.874 381.27 605.47L395.19 603.39L396 593C396 593 404.63 590.75 405.18 584.48C405.189 584.333 405.189 584.186 405.18 584.04C405.18 582.04 405.18 573.04 401.02 559.96C401.02 559.96 423.95 564.73 435.61 563.5C439.8 563.06 444.26 560.5 448.25 557.3C456.25 550.98 460.93 534.77 457.25 525.3L457.18 525.12C451.65 511.23 446.27 522.82 446.27 522.82C446.27 522.82 441.64 511.67 434.19 512.39C426.74 513.11 424.4 524.82 424.4 524.82C409.735 524.545 395.148 527.028 381.4 532.14C354.21 542.44 365.34 560.3 365.34 560.3C365.34 560.3 346.22 571.37 370.18 596.7Z" fill="#262424"/>
<path d="M391.88 602.54C390.74 591.46 380.99 583.03 369.88 584.1C367.523 584.33 365.232 585.009 363.13 586.1C350.49 592.59 360.69 623.1 392.99 613.67L391.88 602.54Z" fill="white"/>
<path d="M381.48 617.88C368.68 617.88 360.11 611.09 356.82 602.82C353.7 594.97 355.88 586.98 362.01 583.82C364.396 582.601 366.992 581.847 369.66 581.6C381.99 580.4 393.08 589.69 394.37 602.27C394.404 602.598 394.372 602.93 394.277 603.246C394.183 603.562 394.027 603.857 393.818 604.112C393.61 604.368 393.353 604.581 393.062 604.737C392.772 604.894 392.453 604.992 392.125 605.025C391.797 605.058 391.465 605.027 391.149 604.932C390.833 604.838 390.538 604.682 390.283 604.473C390.027 604.265 389.814 604.008 389.658 603.717C389.501 603.427 389.404 603.108 389.37 602.78C388.94 598.089 386.678 593.756 383.074 590.721C379.471 587.687 374.816 586.195 370.12 586.57C368.08 586.757 366.095 587.33 364.27 588.26C360.48 590.21 359.27 595.55 361.44 600.95C364.6 608.9 374.58 616.35 392.29 611.2C392.605 611.108 392.935 611.079 393.262 611.115C393.588 611.15 393.904 611.25 394.192 611.408C394.48 611.566 394.734 611.779 394.939 612.035C395.145 612.291 395.298 612.585 395.39 612.9C395.482 613.215 395.511 613.545 395.475 613.872C395.44 614.198 395.34 614.514 395.182 614.802C395.024 615.09 394.811 615.344 394.555 615.549C394.299 615.755 394.005 615.908 393.69 616C389.729 617.199 385.618 617.832 381.48 617.88V617.88Z" fill="#262424"/>
<path d="M425.69 304C425.027 304 424.391 303.737 423.922 303.268C423.453 302.799 423.19 302.163 423.19 301.5V289.94C423.19 289.277 423.453 288.641 423.922 288.172C424.391 287.703 425.027 287.44 425.69 287.44C426.353 287.44 426.989 287.703 427.458 288.172C427.927 288.641 428.19 289.277 428.19 289.94V301.52C428.185 302.18 427.919 302.81 427.451 303.275C426.982 303.739 426.35 304 425.69 304V304Z" fill="#262424"/>
<path d="M443.15 309.9H431.57C430.907 309.9 430.271 309.637 429.802 309.168C429.333 308.699 429.07 308.063 429.07 307.4C429.07 306.737 429.333 306.101 429.802 305.632C430.271 305.163 430.907 304.9 431.57 304.9H443.15C443.813 304.9 444.449 305.163 444.918 305.632C445.387 306.101 445.65 306.737 445.65 307.4C445.65 308.063 445.387 308.699 444.918 309.168C444.449 309.637 443.813 309.9 443.15 309.9Z" fill="#262424"/>
<path d="M425.69 327.36C425.027 327.36 424.391 327.097 423.922 326.628C423.453 326.159 423.19 325.523 423.19 324.86V313.28C423.19 312.617 423.453 311.981 423.922 311.512C424.391 311.043 425.027 310.78 425.69 310.78C426.353 310.78 426.989 311.043 427.458 311.512C427.927 311.981 428.19 312.617 428.19 313.28V324.86C428.19 325.188 428.125 325.513 428 325.817C427.874 326.12 427.69 326.396 427.458 326.628C427.226 326.86 426.95 327.044 426.647 327.17C426.343 327.295 426.018 327.36 425.69 327.36V327.36Z" fill="#262424"/>
<path d="M419.8 309.9H408.23C407.567 309.9 406.931 309.637 406.462 309.168C405.993 308.699 405.73 308.063 405.73 307.4C405.73 306.737 405.993 306.101 406.462 305.632C406.931 305.163 407.567 304.9 408.23 304.9H419.8C420.463 304.9 421.099 305.163 421.568 305.632C422.037 306.101 422.3 306.737 422.3 307.4C422.3 308.063 422.037 308.699 421.568 309.168C421.099 309.637 420.463 309.9 419.8 309.9V309.9Z" fill="#262424"/>
<path d="M1166.88 888.93C1166.22 888.93 1165.58 888.667 1165.11 888.198C1164.64 887.729 1164.38 887.093 1164.38 886.43V879C1164.38 878.337 1164.64 877.701 1165.11 877.232C1165.58 876.763 1166.22 876.5 1166.88 876.5C1167.54 876.5 1168.18 876.763 1168.65 877.232C1169.12 877.701 1169.38 878.337 1169.38 879V886.4C1169.38 886.731 1169.32 887.059 1169.2 887.366C1169.07 887.673 1168.89 887.952 1168.66 888.187C1168.43 888.423 1168.15 888.609 1167.84 888.737C1167.54 888.864 1167.21 888.93 1166.88 888.93V888.93Z" fill="#262424"/>
<path d="M1178 892.69H1170.6C1169.94 892.69 1169.3 892.427 1168.83 891.958C1168.36 891.489 1168.1 890.853 1168.1 890.19C1168.1 889.527 1168.36 888.891 1168.83 888.422C1169.3 887.953 1169.94 887.69 1170.6 887.69H1178C1178.66 887.69 1179.3 887.953 1179.77 888.422C1180.24 888.891 1180.5 889.527 1180.5 890.19C1180.5 890.853 1180.24 891.489 1179.77 891.958C1179.3 892.427 1178.66 892.69 1178 892.69Z" fill="#262424"/>
<path d="M1166.88 903.85C1166.22 903.85 1165.58 903.587 1165.11 903.118C1164.64 902.649 1164.38 902.013 1164.38 901.35V894C1164.38 893.337 1164.64 892.701 1165.11 892.232C1165.58 891.763 1166.22 891.5 1166.88 891.5C1167.54 891.5 1168.18 891.763 1168.65 892.232C1169.12 892.701 1169.38 893.337 1169.38 894V901.4C1169.37 902.054 1169.1 902.677 1168.63 903.136C1168.16 903.594 1167.53 903.85 1166.88 903.85Z" fill="#262424"/>
<path d="M1163.11 892.69H1155.71C1155.05 892.69 1154.41 892.427 1153.94 891.958C1153.47 891.489 1153.21 890.853 1153.21 890.19C1153.21 889.527 1153.47 888.891 1153.94 888.422C1154.41 887.953 1155.05 887.69 1155.71 887.69H1163.11C1163.77 887.69 1164.41 887.953 1164.88 888.422C1165.35 888.891 1165.61 889.527 1165.61 890.19C1165.61 890.853 1165.35 891.489 1164.88 891.958C1164.41 892.427 1163.77 892.69 1163.11 892.69Z" fill="#262424"/>
<path d="M592.78 780.37C592.117 780.37 591.481 780.107 591.012 779.638C590.543 779.169 590.28 778.533 590.28 777.87V766.29C590.28 765.627 590.543 764.991 591.012 764.522C591.481 764.053 592.117 763.79 592.78 763.79C593.443 763.79 594.079 764.053 594.548 764.522C595.017 764.991 595.28 765.627 595.28 766.29V777.87C595.28 778.533 595.017 779.169 594.548 779.638C594.079 780.107 593.443 780.37 592.78 780.37V780.37Z" fill="#262424"/>
<path d="M610.24 786.25H598.66C597.997 786.25 597.361 785.987 596.892 785.518C596.423 785.049 596.16 784.413 596.16 783.75C596.16 783.087 596.423 782.451 596.892 781.982C597.361 781.513 597.997 781.25 598.66 781.25H610.24C610.903 781.25 611.539 781.513 612.008 781.982C612.477 782.451 612.74 783.087 612.74 783.75C612.74 784.413 612.477 785.049 612.008 785.518C611.539 785.987 610.903 786.25 610.24 786.25Z" fill="#262424"/>
<path d="M592.78 803.71C592.117 803.71 591.481 803.447 591.012 802.978C590.543 802.509 590.28 801.873 590.28 801.21V789.63C590.28 788.967 590.543 788.331 591.012 787.862C591.481 787.393 592.117 787.13 592.78 787.13C593.443 787.13 594.079 787.393 594.548 787.862C595.017 788.331 595.28 788.967 595.28 789.63V801.21C595.28 801.873 595.017 802.509 594.548 802.978C594.079 803.447 593.443 803.71 592.78 803.71Z" fill="#262424"/>
<path d="M586.89 786.25H575.32C574.657 786.25 574.021 785.987 573.552 785.518C573.083 785.049 572.82 784.413 572.82 783.75C572.82 783.087 573.083 782.451 573.552 781.982C574.021 781.513 574.657 781.25 575.32 781.25H586.9C587.228 781.251 587.553 781.316 587.856 781.442C588.159 781.568 588.435 781.753 588.666 781.986C588.898 782.218 589.082 782.494 589.207 782.798C589.332 783.101 589.396 783.427 589.395 783.755C589.394 784.083 589.329 784.408 589.203 784.711C589.077 785.014 588.892 785.29 588.659 785.521C588.427 785.753 588.151 785.937 587.847 786.062C587.544 786.187 587.218 786.251 586.89 786.25V786.25Z" fill="#262424"/>
<path d="M349.75 464.69C354.505 464.69 358.36 460.835 358.36 456.08C358.36 451.325 354.505 447.47 349.75 447.47C344.995 447.47 341.14 451.325 341.14 456.08C341.14 460.835 344.995 464.69 349.75 464.69Z" fill="#1868F1"/>
<path d="M1310.94 1082.68C1320.23 1082.68 1327.77 1075.14 1327.77 1065.85C1327.77 1056.56 1320.23 1049.02 1310.94 1049.02C1301.64 1049.02 1294.11 1056.56 1294.11 1065.85C1294.11 1075.14 1301.64 1082.68 1310.94 1082.68Z" fill="#AEDCFF"/>
<path d="M739.92 1109.18C747.657 1109.18 753.93 1102.91 753.93 1095.17C753.93 1087.43 747.657 1081.16 739.92 1081.16C732.182 1081.16 725.91 1087.43 725.91 1095.17C725.91 1102.91 732.182 1109.18 739.92 1109.18Z" fill="#AEDCFF"/>
</svg>
